<svg width="80" height="80" viewBox="0 0 80 80" fill="none" xmlns="http://www.w3.org/2000/svg">
<circle cx="21.3335" cy="58.6667" r="16" fill="#4C956C"/>
<circle cx="58.6665" cy="21.3333" r="16" fill="#4C956C"/>
<path d="M44.9998 25.4739L30.2367 10.7107C24.8447 5.31875 16.1025 5.31875 10.7105 10.7107C5.3185 16.1028 5.3185 24.8449 10.7105 30.237L49.7628 69.2894C55.1548 74.6814 63.8972 74.6814 69.2892 69.2894C74.6812 63.8974 74.6812 55.1551 69.2892 49.7631L54.7628 35.2371" stroke="#4C956C" stroke-width="5" stroke-linecap="round"/>
<rect x="20.6572" y="3.20898" width="79.2558" height="24.8825" rx="3" transform="rotate(45 20.6572 3.20898)" fill="#4C956C"/>
<path d="M40.0002 59.5264L30.237 69.2894C24.845 74.6814 16.1028 74.6814 10.7108 69.2894C9.90404 68.4828 9.21804 67.6011 8.6527 66.6667C5.6087 61.6356 6.12152 57.3334 8.1293 53.3334C8.7756 52.0457 9.63607 50.8377 10.7108 49.7631L20.4739 40.0001M40.0002 20.4739L49.7632 10.7107C55.1552 5.31875 63.8972 5.31875 69.2892 10.7107C74.6816 16.1028 74.6816 24.8449 69.2892 30.237L59.5262 40.0001" stroke="#4C956C" stroke-width="5" stroke-linecap="round"/>
<path d="M52.8046 42.9047C53.8296 43.9301 53.8296 45.5921 52.8046 46.6174C51.7792 47.6424 50.1172 47.6424 49.0922 46.6174C48.0669 45.5921 48.0669 43.9301 49.0922 42.9047C50.1172 41.8797 51.7792 41.8797 52.8046 42.9047Z" fill="white"/>
<path d="M40.4296 30.5299C39.4046 29.5047 37.7422 29.5047 36.7172 30.5299C35.6919 31.555 35.6919 33.2172 36.7172 34.2424C37.7422 35.2674 39.4046 35.2674 40.4296 34.2424C41.4549 33.2172 41.4549 31.555 40.4296 30.5299Z" fill="white"/>
<path d="M55.8983 52.186C56.9237 53.211 56.9237 54.8733 55.8983 55.8983C54.8733 56.9237 53.211 56.9237 52.186 55.8983C51.1607 54.8733 51.1607 53.211 52.186 52.186C53.211 51.1607 54.8733 51.1607 55.8983 52.186Z" fill="white"/>
<path d="M31.1488 27.4361C30.1237 26.4109 28.4615 26.4109 27.4364 27.4361C26.4112 28.4613 26.4112 30.1234 27.4364 31.1486C28.4615 32.1737 30.1237 32.1737 31.1488 31.1486C32.174 30.1234 32.174 28.4613 31.1488 27.4361Z" fill="white"/>
<path d="M43.5236 39.811C44.5489 40.8363 44.5489 42.4983 43.5236 43.5233C42.4986 44.5487 40.8366 44.5487 39.8112 43.5233C38.7862 42.4983 38.7862 40.8363 39.8112 39.811C40.8366 38.786 42.4986 38.786 43.5236 39.811Z" fill="white"/>
<path d="M46.6172 49.0922C47.6422 50.1172 47.6422 51.7792 46.6172 52.8046C45.5918 53.8296 43.9298 53.8296 42.9045 52.8046C41.8795 51.7792 41.8795 50.1172 42.9045 49.0922C43.9298 48.0669 45.5918 48.0669 46.6172 49.0922Z" fill="white"/>
<path d="M34.2421 36.7172C33.2169 35.6919 31.5548 35.6919 30.5296 36.7172C29.5045 37.7422 29.5045 39.4046 30.5296 40.4296C31.5548 41.4549 33.2169 41.4549 34.2421 40.4296C35.2671 39.4046 35.2671 37.7422 34.2421 36.7172Z" fill="white"/>
</svg>
