<svg width="173" height="174" viewBox="0 0 173 174" fill="none" xmlns="http://www.w3.org/2000/svg">
<path d="M159.876 107.869C149.802 108.491 136.557 118.555 123.778 124.341C108.118 131.431 83.7388 125.731 83.7388 125.731C87.5002 123.967 102.782 120.326 105.855 118.976C122.216 111.776 120.829 96.7718 113.038 96.8983C102.743 97.0708 96.7005 99.598 76.1638 102.399C60.596 104.515 42.1834 103.741 33.352 107.114C20.8866 111.875 0.811523 143.913 0.811523 143.913L31.8488 174C31.8488 174 51.0667 155.07 60.4196 155.07C81.7298 155.07 82.5945 154.78 102.38 153.709C110.792 153.258 112.547 152.913 117.365 151.291C143.015 142.619 170.552 119.525 171.059 116.745C172.229 110.313 165.192 107.539 159.876 107.869Z" fill="#1A202D"/>
<path d="M13.7407 66.5585C23.8139 65.9372 37.0594 55.873 49.8385 50.087C65.4986 42.9969 89.8774 48.6969 89.8774 48.6969C86.1161 50.4611 70.834 54.1017 67.761 55.4518C51.4002 62.6517 52.7874 77.6562 60.5787 77.5297C70.8729 77.3571 76.9157 74.8299 97.4524 72.0294C113.02 69.9129 131.433 70.6873 140.264 67.3144C152.73 62.5528 172.805 30.5149 172.805 30.5149L141.767 0.428427C141.767 0.428427 122.55 19.3578 113.197 19.3578C91.8864 19.3578 91.0217 19.6482 71.2366 20.7188C62.8245 21.17 61.0693 21.5147 56.2516 23.1367C30.6016 31.8094 3.06375 54.9027 2.55698 57.6828C1.3875 64.1154 8.42384 66.8894 13.7407 66.5585Z" fill="#1A202D"/>
</svg>
