<svg width="200" height="200" viewBox="0 0 200 200" fill="none" xmlns="http://www.w3.org/2000/svg">
<circle cx="100" cy="102" r="66" fill="white"/>
<path d="M99.9998 160C79.1665 160 60.7498 149.333 49.9998 133.333C50.2498 116.667 83.3332 107.5 99.9998 107.5C116.667 107.5 149.75 116.667 150 133.333C139.25 149.333 120.833 160 99.9998 160ZM99.9998 41.6666C106.63 41.6666 112.989 44.3005 117.678 48.989C122.366 53.6774 125 60.0362 125 66.6666C125 73.297 122.366 79.6559 117.678 84.3443C112.989 89.0327 106.63 91.6666 99.9998 91.6666C93.3694 91.6666 87.0106 89.0327 82.3222 84.3443C77.6338 79.6559 74.9998 73.297 74.9998 66.6666C74.9998 60.0362 77.6338 53.6774 82.3222 48.989C87.0106 44.3005 93.3694 41.6666 99.9998 41.6666ZM99.9998 16.6666C89.0564 16.6666 78.22 18.8221 68.1095 23.01C57.9991 27.1979 48.8125 33.3362 41.0743 41.0744C25.4462 56.7024 16.6665 77.8986 16.6665 100C16.6665 122.101 25.4462 143.297 41.0743 158.926C48.8125 166.664 57.9991 172.802 68.1095 176.99C78.22 181.178 89.0564 183.333 99.9998 183.333C122.101 183.333 143.297 174.554 158.925 158.926C174.553 143.297 183.333 122.101 183.333 100C183.333 53.9166 145.833 16.6666 99.9998 16.6666Z" fill="#1A202D"/>
</svg>
