<svg width="250" height="39" viewBox="0 0 250 39" fill="none" xmlns="http://www.w3.org/2000/svg">
<path d="M57.952 33.5498C57.6447 33.5498 57.3933 33.4514 57.1978 33.2546C57.0023 33.0578 56.9045 32.8047 56.9045 32.4954V5.0804C56.9045 4.77111 57.0023 4.51804 57.1978 4.32122C57.3933 4.12439 57.6447 4.02598 57.952 4.02598H68.469C71.2624 4.02598 73.5948 4.47587 75.4664 5.37564C77.3379 6.2473 78.7625 7.54072 79.7402 9.25592C80.7458 10.943 81.2765 13.0378 81.3324 15.5403C81.3603 16.7775 81.3743 17.86 81.3743 18.7879C81.3743 19.7158 81.3603 20.7843 81.3324 21.9934C81.2486 24.6083 80.7318 26.7734 79.7821 28.4886C78.8324 30.2038 77.4357 31.4832 75.5921 32.3267C73.7484 33.1421 71.4439 33.5498 68.6785 33.5498H57.952ZM63.5667 28.109H68.469C69.8657 28.109 71.011 27.8981 71.9048 27.4764C72.7987 27.0546 73.4551 26.3938 73.8741 25.494C74.3211 24.5662 74.5585 23.3711 74.5864 21.909C74.6144 21.0936 74.6283 20.3625 74.6283 19.7158C74.6563 19.0691 74.6563 18.4224 74.6283 17.7757C74.6283 17.129 74.6144 16.4119 74.5864 15.6246C74.5306 13.5158 73.9859 11.9693 72.9523 10.9852C71.9467 9.97293 70.3824 9.46681 68.2595 9.46681H63.5667V28.109Z" fill="#1A202D"/>
<path d="M87.1559 33.5498C86.8766 33.5498 86.6391 33.4514 86.4436 33.2546C86.2481 33.0578 86.1503 32.8047 86.1503 32.4954V12.6723C86.1503 12.363 86.2481 12.1099 86.4436 11.9131C86.6391 11.7162 86.8766 11.6178 87.1559 11.6178H91.3459C91.6532 11.6178 91.9046 11.7162 92.1002 11.9131C92.2957 12.1099 92.3935 12.363 92.3935 12.6723V32.4954C92.3935 32.8047 92.2957 33.0578 92.1002 33.2546C91.9046 33.4514 91.6532 33.5498 91.3459 33.5498H87.1559ZM87.0302 8.24367C86.7509 8.24367 86.5134 8.14526 86.3179 7.94843C86.1224 7.75161 86.0246 7.49855 86.0246 7.18925V3.81509C86.0246 3.5058 86.1224 3.25274 86.3179 3.05591C86.5134 2.83097 86.7509 2.7185 87.0302 2.7185H91.4297C91.737 2.7185 91.9884 2.83097 92.184 3.05591C92.4074 3.25274 92.5191 3.5058 92.5191 3.81509V7.18925C92.5191 7.49855 92.4074 7.75161 92.184 7.94843C91.9884 8.14526 91.737 8.24367 91.4297 8.24367H87.0302Z" fill="#1A202D"/>
<path d="M107.491 33.9716C105.452 33.9716 103.65 33.592 102.086 32.8328C100.55 32.0736 99.3344 30.977 98.4405 29.543C97.5466 28.0809 97.0578 26.3376 96.974 24.3131C96.9461 23.8632 96.9321 23.3008 96.9321 22.626C96.9321 21.9231 96.9461 21.3466 96.974 20.8968C97.0578 18.8441 97.5327 17.1008 98.3986 15.6668C99.2925 14.2047 100.522 13.094 102.086 12.3348C103.65 11.5757 105.452 11.1961 107.491 11.1961C109.363 11.1961 110.955 11.4632 112.268 11.9974C113.581 12.5035 114.656 13.1503 115.494 13.9376C116.332 14.7249 116.947 15.5543 117.338 16.426C117.757 17.2695 117.98 18.0147 118.008 18.6614C118.036 18.9426 117.938 19.1956 117.715 19.4206C117.519 19.6174 117.282 19.7158 117.002 19.7158H112.519C112.24 19.7158 112.016 19.6455 111.849 19.5049C111.709 19.3362 111.569 19.1113 111.43 18.8301C111.039 17.846 110.536 17.143 109.921 16.7212C109.307 16.2995 108.539 16.0886 107.617 16.0886C106.36 16.0886 105.368 16.4963 104.642 17.3117C103.915 18.1271 103.524 19.3924 103.469 21.1076C103.441 22.2042 103.441 23.2024 103.469 24.1022C103.552 25.8455 103.943 27.1108 104.642 27.8981C105.368 28.6854 106.36 29.0791 107.617 29.0791C108.594 29.0791 109.377 28.8682 109.963 28.4464C110.55 28.0247 111.039 27.3217 111.43 26.3376C111.541 26.0564 111.681 25.8455 111.849 25.7049C112.016 25.5362 112.24 25.4519 112.519 25.4519H117.002C117.282 25.4519 117.519 25.5643 117.715 25.7893C117.938 25.9861 118.036 26.2251 118.008 26.5063C117.98 26.9843 117.84 27.5467 117.589 28.1934C117.366 28.8401 116.988 29.5009 116.458 30.1757C115.955 30.8505 115.298 31.4832 114.488 32.0736C113.678 32.636 112.687 33.1 111.513 33.4655C110.368 33.8029 109.027 33.9716 107.491 33.9716Z" fill="#1A202D"/>
<path d="M128.528 33.9716C127.048 33.9716 125.721 33.6904 124.548 33.1281C123.375 32.5376 122.439 31.7503 121.74 30.7662C121.042 29.782 120.693 28.6854 120.693 27.4764C120.693 25.48 121.489 23.9054 123.081 22.7525C124.701 21.5997 126.824 20.8124 129.45 20.3906L134.939 19.5893V18.8301C134.939 17.7335 134.688 16.8899 134.185 16.2995C133.682 15.709 132.802 15.4138 131.545 15.4138C130.623 15.4138 129.883 15.5965 129.324 15.9621C128.766 16.3276 128.333 16.8056 128.025 17.3961C127.802 17.7616 127.481 17.9444 127.062 17.9444H123.081C122.774 17.9444 122.536 17.86 122.369 17.6913C122.201 17.4945 122.131 17.2695 122.159 17.0165C122.159 16.5385 122.341 15.9761 122.704 15.3294C123.067 14.6827 123.626 14.05 124.38 13.4314C125.134 12.7847 126.098 12.2505 127.271 11.8287C128.444 11.4069 129.883 11.1961 131.587 11.1961C133.347 11.1961 134.855 11.4069 136.112 11.8287C137.369 12.2505 138.375 12.841 139.129 13.6001C139.883 14.3593 140.442 15.245 140.805 16.2573C141.168 17.2414 141.35 18.3099 141.35 19.4627V32.4954C141.35 32.8047 141.252 33.0578 141.056 33.2546C140.861 33.4514 140.61 33.5498 140.302 33.5498H136.196C135.917 33.5498 135.679 33.4514 135.484 33.2546C135.288 33.0578 135.19 32.8047 135.19 32.4954V30.9349C134.827 31.4691 134.338 31.9752 133.724 32.4532C133.109 32.9031 132.369 33.2687 131.503 33.5498C130.665 33.831 129.674 33.9716 128.528 33.9716ZM130.204 29.5852C131.126 29.5852 131.95 29.3884 132.676 28.9947C133.403 28.6011 133.975 27.9965 134.394 27.1811C134.813 26.3657 135.023 25.3394 135.023 24.1022V23.3852L131.126 24.0179C129.618 24.2709 128.514 24.6505 127.816 25.1566C127.118 25.6628 126.768 26.2813 126.768 27.0124C126.768 27.5467 126.922 28.0106 127.229 28.4043C127.565 28.7979 127.998 29.0931 128.528 29.29C129.059 29.4868 129.618 29.5852 130.204 29.5852Z" fill="#1A202D"/>
<path d="M156.734 33.5498C155.003 33.5498 153.522 33.2687 152.293 32.7063C151.064 32.1158 150.128 31.216 149.486 30.007C148.871 28.7979 148.564 27.2795 148.564 25.4519V16.5947H145.296C144.988 16.5947 144.737 16.4963 144.541 16.2995C144.346 16.1026 144.248 15.8496 144.248 15.5403V12.6723C144.248 12.363 144.346 12.1099 144.541 11.9131C144.737 11.7162 144.988 11.6178 145.296 11.6178H148.564V4.65863C148.564 4.34934 148.662 4.09627 148.857 3.89945C149.081 3.70262 149.332 3.60421 149.611 3.60421H153.718C154.025 3.60421 154.276 3.70262 154.472 3.89945C154.667 4.09627 154.765 4.34934 154.765 4.65863V11.6178H160.003C160.282 11.6178 160.519 11.7162 160.715 11.9131C160.91 12.1099 161.008 12.363 161.008 12.6723V15.5403C161.008 15.8496 160.91 16.1026 160.715 16.2995C160.519 16.4963 160.282 16.5947 160.003 16.5947H154.765V24.9457C154.765 26.0142 154.947 26.8578 155.31 27.4764C155.701 28.0668 156.371 28.3621 157.321 28.3621H160.38C160.659 28.3621 160.897 28.4605 161.092 28.6573C161.288 28.8541 161.385 29.0931 161.385 29.3743V32.4954C161.385 32.8047 161.288 33.0578 161.092 33.2546C160.897 33.4514 160.659 33.5498 160.38 33.5498H156.734Z" fill="#1A202D"/>
<path d="M166.088 33.5498C165.781 33.5498 165.53 33.4514 165.334 33.2546C165.139 33.0578 165.041 32.8047 165.041 32.4954V4.65863C165.041 4.34934 165.139 4.09627 165.334 3.89945C165.53 3.70262 165.781 3.60421 166.088 3.60421H170.614C170.893 3.60421 171.13 3.70262 171.326 3.89945C171.521 4.09627 171.619 4.34934 171.619 4.65863V14.1484C172.373 13.2487 173.295 12.5317 174.385 11.9974C175.474 11.4632 176.787 11.1961 178.323 11.1961C179.971 11.1961 181.424 11.5757 182.681 12.3348C183.966 13.0659 184.971 14.1484 185.698 15.5825C186.424 16.9884 186.787 18.7036 186.787 20.7281V32.4954C186.787 32.8047 186.689 33.0578 186.494 33.2546C186.298 33.4514 186.047 33.5498 185.74 33.5498H181.172C180.893 33.5498 180.656 33.4514 180.46 33.2546C180.265 33.0578 180.167 32.8047 180.167 32.4954V20.9811C180.167 19.4909 179.804 18.338 179.077 17.5226C178.351 16.6791 177.318 16.2573 175.977 16.2573C174.664 16.2573 173.602 16.6791 172.792 17.5226C172.01 18.338 171.619 19.4909 171.619 20.9811V32.4954C171.619 32.8047 171.521 33.0578 171.326 33.2546C171.13 33.4514 170.893 33.5498 170.614 33.5498H166.088Z" fill="#1A202D"/>
<path d="M192.849 33.5498C192.542 33.5498 192.29 33.4514 192.095 33.2546C191.899 33.0578 191.801 32.8047 191.801 32.4954V4.65863C191.801 4.34934 191.899 4.09627 192.095 3.89945C192.29 3.70262 192.542 3.60421 192.849 3.60421H197.039C197.318 3.60421 197.556 3.70262 197.751 3.89945C197.947 4.09627 198.045 4.34934 198.045 4.65863V32.4954C198.045 32.8047 197.947 33.0578 197.751 33.2546C197.556 33.4514 197.318 33.5498 197.039 33.5498H192.849Z" fill="#1A202D"/>
<path d="M213.313 33.9716C210.994 33.9716 209.053 33.592 207.489 32.8328C205.924 32.0455 204.723 30.9349 203.885 29.5009C203.075 28.0668 202.628 26.3938 202.544 24.4818C202.516 23.9194 202.502 23.2868 202.502 22.5838C202.502 21.8528 202.516 21.2201 202.544 20.6859C202.628 18.7457 203.103 17.0727 203.969 15.6668C204.835 14.2328 206.05 13.1362 207.614 12.377C209.178 11.5897 211.078 11.1961 213.313 11.1961C215.519 11.1961 217.405 11.5897 218.969 12.377C220.533 13.1362 221.749 14.2328 222.615 15.6668C223.48 17.0727 223.955 18.7457 224.039 20.6859C224.095 21.2201 224.123 21.8528 224.123 22.5838C224.123 23.2868 224.095 23.9194 224.039 24.4818C223.955 26.3938 223.494 28.0668 222.656 29.5009C221.846 30.9349 220.659 32.0455 219.095 32.8328C217.531 33.592 215.603 33.9716 213.313 33.9716ZM213.313 29.3321C214.681 29.3321 215.715 28.9104 216.413 28.0668C217.112 27.1952 217.489 25.9299 217.545 24.2709C217.573 23.8491 217.586 23.2868 217.586 22.5838C217.586 21.8809 217.573 21.3185 217.545 20.8968C217.489 19.2659 217.112 18.0147 216.413 17.143C215.715 16.2714 214.681 15.8355 213.313 15.8355C211.944 15.8355 210.896 16.2714 210.17 17.143C209.472 18.0147 209.095 19.2659 209.039 20.8968C209.011 21.3185 208.997 21.8809 208.997 22.5838C208.997 23.2868 209.011 23.8491 209.039 24.2709C209.095 25.9299 209.472 27.1952 210.17 28.0668C210.896 28.9104 211.944 29.3321 213.313 29.3321Z" fill="#1A202D"/>
<path d="M229.511 33.5498C229.231 33.5498 228.994 33.4514 228.798 33.2546C228.603 33.0578 228.505 32.8047 228.505 32.4954V12.6723C228.505 12.363 228.603 12.1099 228.798 11.9131C228.994 11.7162 229.231 11.6178 229.511 11.6178H233.617C233.924 11.6178 234.176 11.7162 234.371 11.9131C234.567 12.1099 234.664 12.363 234.664 12.6723V14.3172C235.391 13.4174 236.327 12.6723 237.472 12.0818C238.617 11.4913 240.014 11.1961 241.662 11.1961C243.31 11.1961 244.748 11.5757 245.978 12.3348C247.235 13.0659 248.212 14.1484 248.911 15.5825C249.637 16.9884 250 18.7036 250 20.7281V32.4954C250 32.8047 249.888 33.0578 249.665 33.2546C249.469 33.4514 249.232 33.5498 248.952 33.5498H244.511C244.204 33.5498 243.952 33.4514 243.757 33.2546C243.561 33.0578 243.464 32.8047 243.464 32.4954V20.9811C243.464 19.4909 243.1 18.338 242.374 17.5226C241.676 16.6791 240.642 16.2573 239.274 16.2573C237.961 16.2573 236.913 16.6791 236.131 17.5226C235.349 18.338 234.958 19.4909 234.958 20.9811V32.4954C234.958 32.8047 234.86 33.0578 234.664 33.2546C234.469 33.4514 234.232 33.5498 233.952 33.5498H229.511Z" fill="#1A202D"/>
<path d="M16.6649 15.0974C16.6649 19.7297 12.9343 23.4849 8.33246 23.4849C3.73057 23.4849 0 19.7297 0 15.0974C0 10.4652 3.73057 6.70997 8.33246 6.70997C12.9343 6.70997 16.6649 10.4652 16.6649 15.0974Z" fill="#F29202"/>
<path d="M27.4447 9.91422V13.4199C28.4046 12.2748 29.5779 11.3622 30.9644 10.6823C31.5287 9.91422 35.9772 9.66235 35.9772 9.66235C35.9772 9.66235 29.4815 9.43452 27.4447 9.91422Z" fill="#4C956C"/>
<path fill-rule="evenodd" clip-rule="evenodd" d="M27.4447 27.5952C27.4447 28.3621 26.5845 28.527 26.1877 28.527H20.236C19.4741 28.527 19.1428 27.8879 19.0723 27.5684V1.34199C19.0723 0.948342 19.1967 0.626264 19.4456 0.37576C19.6945 0.125253 20.0144 0 20.4055 0H26.1649C26.5204 0 26.8226 0.125253 27.0715 0.37576C27.3203 0.626264 27.4447 0.948342 27.4447 1.34199V9.91422V13.4199C28.4046 12.2748 29.5779 11.3622 30.9644 10.6823C31.5287 9.91422 35.9772 9.66235 35.9772 9.66235C35.9772 9.66235 36.4373 9.66824 36.6628 9.68002C38.4799 9.77492 40.1001 10.2521 41.5233 11.1117C43.1587 12.0422 44.4385 13.4199 45.3629 15.245C46.2872 17.0344 46.7494 19.2173 46.7494 21.794V36.7706C46.7494 37.1643 46.625 37.4864 46.3761 37.7369C46.1272 37.9874 45.8073 38.1126 45.4162 38.1126H39.6035C39.248 38.1126 38.9458 37.9874 38.6969 37.7369C38.448 37.4864 38.3236 37.1643 38.3236 36.7706V22.1161C38.3236 20.2194 37.8614 18.7521 36.9371 17.7143C36.0127 16.6407 34.6973 16.1039 32.9908 16.1039C31.3199 16.1039 29.9689 16.6407 28.9379 17.7143C27.9425 18.7521 27.4447 20.2194 27.4447 22.1161V27.5952Z" fill="#4C956C"/>
</svg>
