<svg width="80" height="80" viewBox="0 0 80 80" fill="none" xmlns="http://www.w3.org/2000/svg">
<path d="M73.3332 40.6797V45.7501C73.3332 58.7527 73.3332 65.2544 69.4278 69.2937C65.5228 73.3334 59.2372 73.3334 46.6665 73.3334H33.3332C20.7624 73.3334 14.477 73.3334 10.5717 69.2937C6.6665 65.2544 6.6665 58.7527 6.6665 45.7501V40.6797C6.6665 33.0517 6.6665 29.2377 8.39717 26.0759C10.1278 22.9141 13.2897 20.9518 19.6133 17.0272L26.2799 12.8896C32.9645 8.74105 36.3068 6.66675 39.9998 6.66675C43.6928 6.66675 47.0352 8.74105 53.7198 12.8896L60.3865 17.0271C66.7102 20.9518 70.2692 22.9141 71.9998 26.0759" fill="#4C956C"/>
<path d="M30 53.3333C32.8346 55.4343 36.282 56.6666 40 56.6666C43.718 56.6666 47.1653 55.4343 50 53.3333" stroke="white" stroke-width="5" stroke-linecap="round"/>
</svg>
