<svg width="15" height="15" viewBox="0 0 15 15" fill="none" xmlns="http://www.w3.org/2000/svg">
<path fill-rule="evenodd" clip-rule="evenodd" d="M8.45455 1.36364H6.54545C5.37739 1.36364 4.58335 1.3647 3.9696 1.41484C3.37175 1.46369 3.06603 1.55222 2.85275 1.66089C2.33958 1.92237 1.92237 2.33958 1.66089 2.85275C1.55222 3.06603 1.46369 3.37175 1.41484 3.9696C1.3647 4.58335 1.36364 5.37739 1.36364 6.54545V8.45455C1.36364 9.62264 1.3647 10.4166 1.41484 11.0304C1.46369 11.6283 1.55222 11.934 1.66089 12.1473C1.92237 12.6604 2.33958 13.0776 2.85275 13.3391C3.06603 13.4478 3.37175 13.5363 3.9696 13.5852C4.58335 13.6353 5.37739 13.6364 6.54545 13.6364H8.45455C9.62264 13.6364 10.4166 13.6353 11.0304 13.5852C11.6283 13.5363 11.934 13.4478 12.1473 13.3391C12.6604 13.0776 13.0776 12.6604 13.3391 12.1473C13.4478 11.934 13.5363 11.6283 13.5852 11.0304C13.6353 10.4166 13.6364 9.62264 13.6364 8.45455V6.54545C13.6364 5.37739 13.6353 4.58335 13.5852 3.9696C13.5363 3.37175 13.4478 3.06603 13.3391 2.85275C13.0776 2.33958 12.6604 1.92237 12.1473 1.66089C11.934 1.55222 11.6283 1.46369 11.0304 1.41484C10.4166 1.3647 9.62264 1.36364 8.45455 1.36364ZM7.5 11.5909C9.75934 11.5909 11.5909 9.75934 11.5909 7.5C11.5909 5.24065 9.75934 3.40909 7.5 3.40909C5.24065 3.40909 3.40909 5.24065 3.40909 7.5C3.40909 9.75934 5.24065 11.5909 7.5 11.5909ZM10.2273 7.5C10.2273 9.0062 9.0062 10.2273 7.5 10.2273C5.99377 10.2273 4.77273 9.0062 4.77273 7.5C4.77273 5.99377 5.99377 4.77273 7.5 4.77273C9.0062 4.77273 10.2273 5.99377 10.2273 7.5ZM10.909 3.40904C10.909 3.03248 11.2143 2.72722 11.5909 2.72722C11.9674 2.72722 12.2727 3.03248 12.2727 3.40904C12.2727 3.78559 11.9674 4.09086 11.5909 4.09086C11.2143 4.09086 10.909 3.78559 10.909 3.40904Z" fill="white"/>
<path fill-rule="evenodd" clip-rule="evenodd" d="M0.445882 2.23368C0 3.10877 0 4.25433 0 6.54545V8.45455C0 10.7457 0 11.8912 0.445882 12.7663C0.838091 13.5361 1.46392 14.1619 2.23368 14.5541C3.10877 15 4.25433 15 6.54545 15H8.45455C10.7457 15 11.8912 15 12.7663 14.5541C13.5361 14.1619 14.1619 13.5361 14.5541 12.7663C15 11.8912 15 10.7457 15 8.45455V6.54545C15 4.25433 15 3.10877 14.5541 2.23368C14.1619 1.46392 13.5361 0.838091 12.7663 0.445882C11.8912 0 10.7457 0 8.45455 0H6.54545C4.25433 0 3.10877 0 2.23368 0.445882C1.46392 0.838091 0.838091 1.46392 0.445882 2.23368ZM6.54545 1.36364H8.45455C9.62264 1.36364 10.4166 1.3647 11.0304 1.41484C11.6283 1.46369 11.934 1.55222 12.1473 1.66089C12.6604 1.92237 13.0776 2.33958 13.3391 2.85275C13.4478 3.06603 13.5363 3.37175 13.5852 3.9696C13.6353 4.58335 13.6364 5.37739 13.6364 6.54545V8.45455C13.6364 9.62264 13.6353 10.4166 13.5852 11.0304C13.5363 11.6283 13.4478 11.934 13.3391 12.1473C13.0776 12.6604 12.6604 13.0776 12.1473 13.3391C11.934 13.4478 11.6283 13.5363 11.0304 13.5852C10.4166 13.6353 9.62264 13.6364 8.45455 13.6364H6.54545C5.37739 13.6364 4.58335 13.6353 3.9696 13.5852C3.37175 13.5363 3.06603 13.4478 2.85275 13.3391C2.33958 13.0776 1.92237 12.6604 1.66089 12.1473C1.55222 11.934 1.46369 11.6283 1.41484 11.0304C1.3647 10.4166 1.36364 9.62264 1.36364 8.45455V6.54545C1.36364 5.37739 1.3647 4.58335 1.41484 3.9696C1.46369 3.37175 1.55222 3.06603 1.66089 2.85275C1.92237 2.33958 2.33958 1.92237 2.85275 1.66089C3.06603 1.55222 3.37175 1.46369 3.9696 1.41484C4.58335 1.3647 5.37739 1.36364 6.54545 1.36364Z" fill="white"/>
</svg>
