<svg width="32" height="31" viewBox="0 0 32 31" fill="none" xmlns="http://www.w3.org/2000/svg">
<path d="M12.1407 0.428589C15.1853 0.428589 18.1052 1.60256 20.258 3.69226C22.4109 5.78195 23.6203 8.61618 23.6203 11.5714C23.6203 14.3314 22.5783 16.8686 20.8652 18.8229L21.3421 19.2857H22.7373L31.5677 27.8572L28.9186 30.4286L20.0881 21.8572V20.5029L19.6113 20.04C17.5979 21.7029 14.9841 22.7143 12.1407 22.7143C9.09615 22.7143 6.17627 21.5403 4.02343 19.4506C1.87059 17.3609 0.661133 14.5267 0.661133 11.5714C0.661133 8.61618 1.87059 5.78195 4.02343 3.69226C6.17627 1.60256 9.09615 0.428589 12.1407 0.428589ZM12.1407 3.85716C7.7255 3.85716 4.19332 7.28573 4.19332 11.5714C4.19332 15.8572 7.7255 19.2857 12.1407 19.2857C16.556 19.2857 20.0881 15.8572 20.0881 11.5714C20.0881 7.28573 16.556 3.85716 12.1407 3.85716Z" fill="#1A202D" fill-opacity="0.75"/>
</svg>
