<svg width="80" height="80" viewBox="0 0 80 80" fill="none" xmlns="http://www.w3.org/2000/svg">
<g clip-path="url(#clip0_192_482)">
<path d="M50.0002 36.6666C53.6821 36.6666 56.6668 33.6818 56.6668 29.9999C56.6668 26.318 53.6821 23.3333 50.0002 23.3333C46.3183 23.3333 43.3335 26.318 43.3335 29.9999C43.3335 33.6818 46.3183 36.6666 50.0002 36.6666Z" stroke="#4C956C" stroke-width="5"/>
<path d="M66.6665 58.6671L59.2548 51.9968C55.7895 48.8781 50.6292 48.5674 46.8152 51.2481L45.8212 51.9464C43.1705 53.8094 39.5645 53.4971 37.2738 51.2061L22.9747 36.9071C20.1207 34.0531 15.5426 33.9008 12.505 36.5584L7.60352 40.8474" stroke="#4C956C" stroke-width="5" stroke-linecap="round"/>
<path d="M23.3332 11.1261C28.2361 8.28998 33.9285 6.66675 39.9998 6.66675C58.4092 6.66675 73.3332 21.5906 73.3332 40.0001C73.3332 58.4094 58.4092 73.3334 39.9998 73.3334C21.5903 73.3334 6.6665 58.4094 6.6665 40.0001C6.6665 33.9287 8.28974 28.2363 11.1259 23.3334" stroke="#4C956C" stroke-width="5" stroke-linecap="round"/>
<ellipse cx="18" cy="48" rx="12" ry="14" fill="#4C956C"/>
<ellipse cx="51.2247" cy="60.8283" rx="11.4144" ry="13.7696" transform="rotate(75 51.2247 60.8283)" fill="#4C956C"/>
<ellipse cx="32.066" cy="59.8319" rx="11.6373" ry="21.1806" transform="rotate(120 32.066 59.8319)" fill="#4C956C"/>
</g>
<defs>
<clipPath id="clip0_192_482">
<rect width="80" height="80" fill="white"/>
</clipPath>
</defs>
</svg>
