<svg width="60" height="70" viewBox="0 0 60 70" fill="none" xmlns="http://www.w3.org/2000/svg">
<path fill-rule="evenodd" clip-rule="evenodd" d="M0 16.8438V10.9375H9.81L12.63 16.8438H57C57.7956 16.8438 58.5587 17.1549 59.1213 17.7087C59.6839 18.2625 60 19.0137 60 19.7969C60 20.2989 59.85 20.8009 59.64 21.2734L48.9 40.3802C47.88 42.1816 45.9 43.4219 43.65 43.4219H21.3C20.3462 43.4219 17.8126 40.6459 16.8 39.258L6 16.8438H0Z" fill="#1A202D"/>
<path fill-rule="evenodd" clip-rule="evenodd" d="M48 47.25C44.67 47.25 42 49.8783 42 53.1562C42 54.7227 42.6321 56.225 43.7574 57.3326C44.8826 58.4402 46.4087 59.0625 48 59.0625C49.5913 59.0625 51.1174 58.4402 52.2426 57.3326C53.3679 56.225 54 54.7227 54 53.1562C54 49.8783 51.3 47.25 48 47.25ZM18 47.25C14.67 47.25 12 49.8783 12 53.1562C12 54.7227 12.6321 56.225 13.7574 57.3326C14.8826 58.4402 16.4087 59.0625 18 59.0625C19.5913 59.0625 21.1174 58.4402 22.2426 57.3326C23.3679 56.225 24 54.7227 24 53.1562C24 49.8783 21.3 47.25 18 47.25Z" fill="#1A202D"/>
</svg>
