<svg width="180" height="156" viewBox="0 0 180 156" fill="none" xmlns="http://www.w3.org/2000/svg">
<path d="M174.707 5.64679C169.666 0.594481 159.721 0.156847 152.017 0.161417H27.9841C20.2792 0.156495 10.3348 0.595126 5.29412 5.64743C0.241462 10.6881 -0.00347965 20.4406 3.59743e-05 28.144V127.856C-0.00347965 135.559 0.240407 145.502 5.29412 150.545C10.3348 155.595 20.2789 155.843 27.9837 155.838H152.017C159.72 155.843 169.666 155.595 174.707 150.545C179.759 145.504 180.005 135.559 180 127.856V28.144C180.005 20.4406 179.759 10.6875 174.707 5.64679ZM131.555 126.444C131.555 128.628 129.788 130.397 127.603 130.397C125.422 130.397 123.65 128.627 123.65 126.444V113.27C123.65 111.087 125.422 109.318 127.603 109.318C129.788 109.318 131.555 111.087 131.555 113.27V126.444ZM165.405 127.856C165.401 131.575 163.918 134.875 161.483 137.322C159.037 139.757 155.737 141.239 152.017 141.243H140.513V85.7036H97.2967V141.243H27.9841C24.2628 141.239 20.9623 139.757 18.5154 137.322C16.0819 134.875 14.5983 131.575 14.5948 127.856V56.1077H165.405V127.856Z" fill="#1A202D"/>
<path d="M68.5134 85.7039H36.4854V116.513H68.5134V85.7039Z" fill="#1A202D"/>
</svg>
