<svg width="80" height="87" viewBox="0 0 80 87" fill="none" xmlns="http://www.w3.org/2000/svg">
<path d="M27.7295 43.7885L40.663 29.8604M51.0097 41.0028L38.0763 54.9314" stroke="#4C956C" stroke-width="2"/>
<path d="M23.8112 69.3941L27.9355 73.8353C30.9495 77.0812 32.4565 78.7041 34.2968 78.9356C34.7075 78.9873 35.1225 78.9873 35.5335 78.9356C37.3735 78.7041 38.8805 77.0812 41.8945 73.8353C44.9085 70.5895 46.4155 68.9665 46.6305 66.985C46.6785 66.5424 46.6785 66.0955 46.6305 65.6532C46.4155 63.6713 44.9085 62.0484 41.8945 58.8025L25.3975 41.0365C22.3835 37.7907 20.8765 36.1678 19.0362 35.9362C18.6254 35.8845 18.2104 35.8845 17.7996 35.9362C15.9593 36.1678 14.4523 37.7907 11.4384 41.0365C8.4244 44.2824 6.91744 45.9053 6.7025 47.8868C6.6545 48.3295 6.6545 48.7764 6.7025 49.2186C6.91744 51.2005 8.4244 52.8235 11.4384 56.0693L13.5005 58.2899" stroke="#4C956C" stroke-width="2" stroke-linecap="round"/>
<path d="M56.1888 16.7599L52.0645 12.3184C49.0505 9.07257 47.5435 7.44968 45.7032 7.21821C45.2925 7.16652 44.8775 7.16652 44.4665 7.21821C42.6265 7.44968 41.1195 9.07257 38.1055 12.3184C35.0915 15.5642 33.5845 17.1871 33.3695 19.169C33.3215 19.6114 33.3215 20.0583 33.3695 20.5007C33.5845 22.4826 35.0915 24.1055 38.1055 27.3513L54.6025 45.1173C57.6165 48.3631 59.1235 49.9861 60.9638 50.2176C61.3745 50.2693 61.7895 50.2693 62.2005 50.2176C64.0405 49.9861 65.5475 48.3631 68.5615 45.1173C71.5755 41.8714 73.0825 40.2485 73.2975 38.267C73.3455 37.8244 73.3455 37.3774 73.2975 36.9352C73.0825 34.9533 71.5755 33.3303 68.5615 30.0845L66.4995 27.8638" stroke="#4C956C" stroke-width="2" stroke-linecap="round"/>
<path d="M60.0625 8.96729L70.4092 20.1099" stroke="#4C956C" stroke-width="5" stroke-linecap="round" stroke-linejoin="round"/>
<path d="M8.3252 64.6821L18.6719 75.8247" stroke="#4C956C" stroke-width="5" stroke-linecap="round" stroke-linejoin="round"/>
<rect width="43.0164" height="22.7916" rx="2" transform="matrix(0.680451 0.732794 -0.680451 0.732794 47.2324 3.5957)" fill="#4C956C"/>
<rect width="43.611" height="22.3969" rx="2" transform="matrix(0.680451 0.732794 -0.680451 0.732794 18.312 34.4614)" fill="#4C956C"/>
<rect width="42.4571" height="15.7443" rx="2" transform="matrix(-0.680451 0.732794 -0.680451 -0.732794 55.603 37.3838)" fill="#4C956C"/>
</svg>
