<svg width="20" height="15" viewBox="0 0 20 15" fill="none" xmlns="http://www.w3.org/2000/svg">
<path fill-rule="evenodd" clip-rule="evenodd" d="M18.0581 2.64375C17.8631 2.20563 17.2518 1.72438 16.778 1.63625C16.758 1.6325 14.6161 1.25 10.0059 1.25C5.38392 1.25 3.2401 1.6325 3.21948 1.63625C2.74571 1.72438 2.13507 2.20563 1.93944 2.64625C1.93319 2.65938 1.25066 4.26813 1.25066 7.5C1.25066 10.7312 1.93319 12.34 1.94069 12.3562C2.13507 12.7944 2.74571 13.2756 3.2201 13.3637C3.2401 13.3675 5.38392 13.75 9.99344 13.75H10.0059C14.6161 13.75 16.758 13.3675 16.7787 13.3637C17.2524 13.2756 17.8631 12.7944 18.0587 12.3538C18.0649 12.34 18.7487 10.7312 18.7487 7.5C18.7487 4.26875 18.0649 2.65937 18.0581 2.64375ZM8.12963 11.25C8.24526 11.25 8.36151 11.2181 8.46276 11.1538L13.4748 8.00062C13.6573 7.88625 13.7673 7.685 13.7667 7.46938C13.7661 7.25375 13.6536 7.05375 13.4704 6.94062L8.45839 3.84313C8.26651 3.72375 8.02338 3.71875 7.82524 3.82937C7.62711 3.93937 7.50461 4.14812 7.50461 4.375V10.625C7.50461 10.8525 7.62836 11.0619 7.82774 11.1719C7.92212 11.2244 8.02588 11.25 8.12963 11.25Z" fill="white"/>
<path fill-rule="evenodd" clip-rule="evenodd" d="M17.0068 14.5925C17.8924 14.4281 18.8356 13.6838 19.2012 12.8619C19.2344 12.7881 20 11.0294 20 7.5C20 3.97062 19.2344 2.21125 19.2018 2.1375C18.8356 1.31562 17.8924 0.571875 17.0062 0.406875C16.9162 0.390625 14.7517 0 9.99344 0C5.24829 0 3.08197 0.390625 2.99197 0.4075C2.10632 0.571875 1.16254 1.31562 0.796275 2.13812C0.763774 2.21125 0 3.97062 0 7.5C0 11.0294 0.763774 12.7881 0.796275 12.8612C1.16254 13.6837 2.10632 14.4281 2.99197 14.5931C3.08197 14.6094 5.24829 15 9.99344 15H10.0059C14.7517 15 16.9162 14.6094 17.0068 14.5925ZM16.778 1.63625C17.2518 1.72438 17.8631 2.20563 18.0581 2.64375C18.0649 2.65937 18.7487 4.26875 18.7487 7.5C18.7487 10.7312 18.0649 12.34 18.0587 12.3538C17.8631 12.7944 17.2524 13.2756 16.7787 13.3637C16.758 13.3675 14.6161 13.75 10.0059 13.75H9.99344C5.38392 13.75 3.2401 13.3675 3.2201 13.3637C2.74571 13.2756 2.13507 12.7944 1.94069 12.3562C1.93319 12.34 1.25066 10.7312 1.25066 7.5C1.25066 4.26813 1.93319 2.65938 1.93944 2.64625C2.13507 2.20563 2.74571 1.72438 3.21948 1.63625C3.2401 1.6325 5.38392 1.25 10.0059 1.25C14.6161 1.25 16.758 1.6325 16.778 1.63625Z" fill="white"/>
</svg>
